<svg xmlns="http://www.w3.org/2000/svg" width="26.16" height="19.03" viewBox="0 0 26.16 19.03">
<defs>
    <style>
      .cls-1 {
        fill: #c5cfd9;
        fill-rule: evenodd;
      }
    </style>
  </defs>
  <path class="cls-1" d="M1022.07,1449.47H997.094a0.6,0.6,0,0,0-.594.6v17.84a0.6,0.6,0,0,0,.594.59h24.976a0.591,0.591,0,0,0,.59-0.59v-17.84A0.593,0.593,0,0,0,1022.07,1449.47Zm-0.6,16.4-7.36-7.36-0.84.84,7.96,7.96h-23.3l7.967-7.96-0.84-.84-7.371,7.36v-15.21h23.781v15.21Zm-1.2-15.21-10.69,10.69-10.689-10.69h-1.2v0.48l11.471,11.47a0.58,0.58,0,0,0,.84,0l11.47-11.47v-0.48h-1.2Z" transform="translate(-996.5 -1449.47)"/>
</svg>
