<svg xmlns="http://www.w3.org/2000/svg" width="22.4" height="22.68" viewBox="0 0 22.4 22.68">
  <metadata><?xpacket begin="﻿" id="W5M0MpCehiHzreSzNTczkc9d"?>
<x:xmpmeta xmlns:x="adobe:ns:meta/" x:xmptk="Adobe XMP Core 5.6-c142 79.160924, 2017/07/13-01:06:39        ">
   <rdf:RDF xmlns:rdf="http://www.w3.org/1999/02/22-rdf-syntax-ns#">
      <rdf:Description rdf:about=""/>
   </rdf:RDF>
</x:xmpmeta>
                                                                                                    
                                                                                                    
                                                                                                    
                                                                                                    
                                                                                                    
                                                                                                    
                                                                                                    
                                                                                                    
                                                                                                    
                                                                                                    
                                                                                                    
                                                                                                    
                                                                                                    
                                                                                                    
                                                                                                    
                                                                                                    
                                                                                                    
                                                                                                    
                                                                                                    
                                                                                                    
                           
<?xpacket end="w"?></metadata>
<defs>
    <style>
      .cls-1 {
        fill: #c5cfd9;
        fill-rule: evenodd;
      }
    </style>
  </defs>
  <path class="cls-1" d="M1633.64,1879.79a2.256,2.256,0,0,0,2.26,2.25h4.77a2.256,2.256,0,0,0,2.26-2.25v-8.9h3.79v8.9a2.253,2.253,0,0,0,2.25,2.25h4.78a2.253,2.253,0,0,0,2.25-2.25v-11.85a2.253,2.253,0,0,0-.96-1.84l-8.92-6.29a2.3,2.3,0,0,0-1.3-.41,2.328,2.328,0,0,0-1.3.41l-8.92,6.29a2.253,2.253,0,0,0-.96,1.84v11.85h0Zm1.66-11.85a0.621,0.621,0,0,1,.26-0.49l8.92-6.28a0.58,0.58,0,0,1,.68,0l8.93,6.28a0.641,0.641,0,0,1,.25.49v11.85a0.591,0.591,0,0,1-.59.59h-4.78a0.585,0.585,0,0,1-.59-0.59v-9.96a0.6,0.6,0,0,0-.6-0.6h-5.92a0.593,0.593,0,0,0-.59.6v9.96a0.593,0.593,0,0,1-.6.59h-4.77a0.593,0.593,0,0,1-.6-0.59v-11.85Zm18.45,14.12h-4.78a2.275,2.275,0,0,1-2.27-2.27v-8.88h-3.75v8.88a2.277,2.277,0,0,1-2.28,2.27h-4.77a2.277,2.277,0,0,1-2.28-2.27v-11.85a2.3,2.3,0,0,1,.97-1.86l8.92-6.28a2.253,2.253,0,0,1,2.62,0l8.92,6.28a2.272,2.272,0,0,1,.97,1.86v11.85A2.275,2.275,0,0,1,1653.75,1882.06Zm-10.84-11.18h3.82v8.91a2.241,2.241,0,0,0,2.24,2.23h4.78a2.232,2.232,0,0,0,2.23-2.23v-11.85a2.225,2.225,0,0,0-.95-1.83l-8.92-6.28a2.222,2.222,0,0,0-1.29-.41,2.169,2.169,0,0,0-1.28.41l-8.93,6.28a2.251,2.251,0,0,0-.95,1.83v11.85a2.242,2.242,0,0,0,.66,1.58,2.215,2.215,0,0,0,1.58.65h4.77a2.234,2.234,0,0,0,2.24-2.23v-8.91Zm10.84,9.52h-4.78a0.606,0.606,0,0,1-.61-0.61v-9.96a0.58,0.58,0,0,0-.58-0.58h-5.92a0.572,0.572,0,0,0-.57.58v9.96a0.615,0.615,0,0,1-.62.61h-4.77a0.606,0.606,0,0,1-.61-0.61v-11.85a0.6,0.6,0,0,1,.25-0.5l8.93-6.28a0.57,0.57,0,0,1,.7,0l8.93,6.28a0.611,0.611,0,0,1,.26.5v11.85A0.612,0.612,0,0,1,1653.75,1880.4Zm-11.89-11.19h5.92a0.623,0.623,0,0,1,.62.62v9.96a0.563,0.563,0,0,0,.57.57h4.78a0.57,0.57,0,0,0,.57-0.57v-11.85a0.578,0.578,0,0,0-.24-0.47l-8.93-6.28a0.55,0.55,0,0,0-.66,0l-8.92,6.28a0.562,0.562,0,0,0-.25.47v11.85a0.572,0.572,0,0,0,.58.57h4.77a0.572,0.572,0,0,0,.58-0.57v-9.96A0.615,0.615,0,0,1,1641.86,1869.21Z" transform="translate(-1633.63 -1859.38)"/>
</svg>
