<svg xmlns="http://www.w3.org/2000/svg" width="25.21" height="27.16" viewBox="0 0 25.21 27.16">
<defs>
    <style>
      .cls-1 {
        fill: #8fbb1c;
        fill-rule: evenodd;
      }
    </style>
  </defs>
  <path class="cls-1" d="M1229.93,1735.28a0.977,0.977,0,0,0-.97.97v3.54a12.58,12.58,0,0,0-21.33,9.07,0.97,0.97,0,1,0,1.94,0,10.66,10.66,0,0,1,18.53-7.2l-4.29,1.43a0.969,0.969,0,1,0,.61,1.84l5.82-1.94a0.958,0.958,0,0,0,.66-0.92v-5.82A0.971,0.971,0,0,0,1229.93,1735.28Zm1.94,12.61a0.971,0.971,0,0,0-.97.97,10.667,10.667,0,0,1-18.54,7.2l4.3-1.43a0.983,0.983,0,0,0,.62-1.23,0.969,0.969,0,0,0-1.23-.61l-5.82,1.94a0.967,0.967,0,0,0-.67.92v5.82a0.97,0.97,0,0,0,1.94,0v-3.55a12.58,12.58,0,0,0,21.34-9.06A0.965,0.965,0,0,0,1231.87,1747.89Z" transform="translate(-1207.63 -1735.28)"/>
</svg>
