<svg xmlns="http://www.w3.org/2000/svg" width="22.72" height="30.28" viewBox="0 0 22.72 30.28">
  <metadata><?xpacket begin="﻿" id="W5M0MpCehiHzreSzNTczkc9d"?>
<x:xmpmeta xmlns:x="adobe:ns:meta/" x:xmptk="Adobe XMP Core 5.6-c142 79.160924, 2017/07/13-01:06:39        ">
   <rdf:RDF xmlns:rdf="http://www.w3.org/1999/02/22-rdf-syntax-ns#">
      <rdf:Description rdf:about=""/>
   </rdf:RDF>
</x:xmpmeta>
                                                                                                    
                                                                                                    
                                                                                                    
                                                                                                    
                                                                                                    
                                                                                                    
                                                                                                    
                                                                                                    
                                                                                                    
                                                                                                    
                                                                                                    
                                                                                                    
                                                                                                    
                                                                                                    
                                                                                                    
                                                                                                    
                                                                                                    
                                                                                                    
                                                                                                    
                                                                                                    
                           
<?xpacket end="w"?></metadata>
<defs>
    <style>
      .cls-1 {
        fill: #c5cfd9;
        fill-rule: evenodd;
      }
    </style>
  </defs>
  <path class="cls-1" d="M997.384,1878.28a20.64,20.64,0,0,0,.966,4.03,28.081,28.081,0,0,0,2.74,5.7,37.189,37.189,0,0,0,5.41,6.69,2.969,2.969,0,0,0,4.2,0,37.189,37.189,0,0,0,5.41-6.69,27.511,27.511,0,0,0,2.74-5.7,20.1,20.1,0,0,0,.97-4.03,12.775,12.775,0,0,0,.11-1.65,11.5,11.5,0,0,0-.89-4.38A11.34,11.34,0,0,0,997.384,1878.28Zm11.8,14.88a0.818,0.818,0,0,1-.58.24,0.8,0.8,0,0,1-.57-0.24c-8.894-8.82-8.586-16.49-8.585-16.5h0a9.158,9.158,0,0,1,18.315,0h0C1017.76,1876.67,1018.07,1884.34,1009.18,1893.16Zm-0.58,2.43a3,3,0,0,1-2.12-.87,37.244,37.244,0,0,1-5.41-6.7,28,28,0,0,1-2.744-5.7,20.735,20.735,0,0,1-.967-4.04,11.09,11.09,0,0,1-.108-1.65,11.377,11.377,0,0,1,6.929-10.42,11.3,11.3,0,0,1,8.84,0,11.311,11.311,0,0,1,6.93,10.42,9.761,9.761,0,0,1-.11,1.65,20.842,20.842,0,0,1-.96,4.04,28.082,28.082,0,0,1-2.75,5.7,37.244,37.244,0,0,1-5.41,6.7A3,3,0,0,1,1008.6,1895.59Zm0-30.23a11.27,11.27,0,0,0-4.4.89,11.481,11.481,0,0,0-3.59,2.42,11.423,11.423,0,0,0-3.2,9.61,20.546,20.546,0,0,0,.965,4.02,27.944,27.944,0,0,0,2.746,5.7,36.98,36.98,0,0,0,5.4,6.68,2.957,2.957,0,0,0,4.17,0,37.86,37.86,0,0,0,5.4-6.68,28.282,28.282,0,0,0,2.74-5.7,19.962,19.962,0,0,0,.96-4.02,9.761,9.761,0,0,0,.11-1.65,11.124,11.124,0,0,0-.89-4.37,11.329,11.329,0,0,0-6.01-6.01A11.2,11.2,0,0,0,1008.6,1865.36Zm0,28.06a0.824,0.824,0,0,1-.59-0.24c-8.854-8.79-8.594-16.44-8.591-16.52a9.181,9.181,0,0,1,18.361,0,14.684,14.684,0,0,1-.95,4.96,26.662,26.662,0,0,1-2.54,5.26,34.9,34.9,0,0,1-5.1,6.3A0.791,0.791,0,0,1,1008.6,1893.42Zm0-25.89a9.146,9.146,0,0,0-9.13,9.13,15.108,15.108,0,0,0,.96,4.95,25.662,25.662,0,0,0,2.53,5.24,34.773,34.773,0,0,0,5.09,6.29,0.747,0.747,0,0,0,.55.23,0.787,0.787,0,0,0,.56-0.23,35.206,35.206,0,0,0,5.09-6.29,25.734,25.734,0,0,0,2.53-5.25,15.4,15.4,0,0,0,.95-4.94A9.139,9.139,0,0,0,1008.6,1867.53Zm5.02,3.82a7.066,7.066,0,0,0-5.02-2.08,7.1,7.1,0,0,0-7.1,7.1,7.066,7.066,0,0,0,2.08,5.02,6.926,6.926,0,0,0,2.26,1.52,7.019,7.019,0,0,0,2.76.56,7.1,7.1,0,0,0,2.77-.56,7.142,7.142,0,0,0,3.77-3.77,7.1,7.1,0,0,0,.56-2.77,7.019,7.019,0,0,0-.56-2.76A6.926,6.926,0,0,0,1013.62,1871.35Zm-5.02,9.95a4.93,4.93,0,1,1,4.93-4.93A4.927,4.927,0,0,1,1008.6,1881.3Zm0,2.2a7.1,7.1,0,0,1-2.77-.56,7.271,7.271,0,0,1-2.27-1.53,7.086,7.086,0,0,1-1.52-2.26,7.156,7.156,0,0,1,0-5.55,7.036,7.036,0,0,1,3.79-3.79,7.156,7.156,0,0,1,5.55,0,7.086,7.086,0,0,1,2.26,1.52,7.271,7.271,0,0,1,1.53,2.27,7.156,7.156,0,0,1,0,5.55,7.227,7.227,0,0,1-1.53,2.26A7.067,7.067,0,0,1,1008.6,1883.5Zm0-14.2a7.075,7.075,0,1,0,2.76,13.59,7.105,7.105,0,0,0,3.76-3.76,7.057,7.057,0,0,0,0-5.51,7.078,7.078,0,0,0-3.76-3.77A7.046,7.046,0,0,0,1008.6,1869.3Zm0,12.03a4.96,4.96,0,1,1,4.96-4.96A4.966,4.966,0,0,1,1008.6,1881.33Zm0-9.87a4.91,4.91,0,1,0,4.91,4.91A4.917,4.917,0,0,0,1008.6,1871.46Z" transform="translate(-997.25 -1865.31)"/>
</svg>
