<svg xmlns="http://www.w3.org/2000/svg" width="22.68" height="22.68" viewBox="0 0 22.68 22.68">
  <metadata><?xpacket begin="﻿" id="W5M0MpCehiHzreSzNTczkc9d"?>
<x:xmpmeta xmlns:x="adobe:ns:meta/" x:xmptk="Adobe XMP Core 5.6-c142 79.160924, 2017/07/13-01:06:39        ">
   <rdf:RDF xmlns:rdf="http://www.w3.org/1999/02/22-rdf-syntax-ns#">
      <rdf:Description rdf:about=""/>
   </rdf:RDF>
</x:xmpmeta>
                                                                                                    
                                                                                                    
                                                                                                    
                                                                                                    
                                                                                                    
                                                                                                    
                                                                                                    
                                                                                                    
                                                                                                    
                                                                                                    
                                                                                                    
                                                                                                    
                                                                                                    
                                                                                                    
                                                                                                    
                                                                                                    
                                                                                                    
                                                                                                    
                                                                                                    
                                                                                                    
                           
<?xpacket end="w"?></metadata>
<defs>
    <style>
      .cls-1 {
        fill: #c5cfd9;
        fill-rule: evenodd;
      }
    </style>
  </defs>
  <path class="cls-1" d="M1384.76,1868.24a11.246,11.246,0,0,0-3.6-2.42,11.371,11.371,0,0,0-8.82,0,11.276,11.276,0,0,0-6.02,6.02,11.255,11.255,0,0,0,0,8.82,11.276,11.276,0,0,0,6.02,6.02,11.371,11.371,0,0,0,8.82,0,11.276,11.276,0,0,0,6.02-6.02,11.371,11.371,0,0,0,0-8.82A11.246,11.246,0,0,0,1384.76,1868.24Zm-1.87,7.19a20.291,20.291,0,0,0-.55-4.09,10.958,10.958,0,0,0,2.05-1.05,9.666,9.666,0,0,1,2.01,5.14h-3.51Zm-5.32-8.7c1.1,0.43,2.07,1.72,2.73,3.54a14.144,14.144,0,0,1-2.73.4v-3.94Zm-1.64,0v3.94a14.03,14.03,0,0,1-2.73-.4C1373.86,1868.45,1374.83,1867.16,1375.93,1866.73Zm-3.2,5.11a15.155,15.155,0,0,0,3.2.48v3.11h-3.68A18.873,18.873,0,0,1,1372.73,1871.84Zm3.2,5.23v3.11a15.155,15.155,0,0,0-3.2.48,18.873,18.873,0,0,1-.48-3.59h3.68Zm0,4.75v3.95c-1.1-.43-2.07-1.72-2.73-3.54A14.832,14.832,0,0,1,1375.93,1881.82Zm1.64,3.95v-3.95a14.962,14.962,0,0,1,2.73.41C1379.64,1884.05,1378.67,1885.34,1377.57,1885.77Zm3.2-5.11a16.567,16.567,0,0,0-3.2-.48v-3.11h3.68A18.873,18.873,0,0,1,1380.77,1880.66Zm-3.2-5.23v-3.11a16.567,16.567,0,0,0,3.2-.48,18.873,18.873,0,0,1,.48,3.59h-3.68Zm5.68-6.36a8.884,8.884,0,0,1-1.38.69c-0.14-.36-0.28-0.72-0.44-1.05a9.372,9.372,0,0,0-.72-1.3A9.768,9.768,0,0,1,1383.25,1869.07Zm-10.46-1.66a9.372,9.372,0,0,0-.72,1.3c-0.16.33-.3,0.69-0.44,1.05a9.352,9.352,0,0,1-1.38-.69A9.768,9.768,0,0,1,1372.79,1867.41Zm-3.68,2.88a10.958,10.958,0,0,0,2.05,1.05,20.291,20.291,0,0,0-.55,4.09h-3.51A9.666,9.666,0,0,1,1369.11,1870.29Zm1.5,6.78a20.291,20.291,0,0,0,.55,4.09,10.958,10.958,0,0,0-2.05,1.05,9.666,9.666,0,0,1-2.01-5.14h3.51Zm-0.36,6.36a9.352,9.352,0,0,1,1.38-.69c0.14,0.36.28,0.72,0.44,1.05a9.372,9.372,0,0,0,.72,1.3A9.768,9.768,0,0,1,1370.25,1883.43Zm10.46,1.66a9.372,9.372,0,0,0,.72-1.3c0.16-.33.3-0.69,0.44-1.05a8.884,8.884,0,0,1,1.38.69A9.768,9.768,0,0,1,1380.71,1885.09Zm3.68-2.88a10.958,10.958,0,0,0-2.05-1.05,20.291,20.291,0,0,0,.55-4.09h3.51A9.666,9.666,0,0,1,1384.39,1882.21Zm-7.64,5.38a11.277,11.277,0,1,1,4.42-.89A11.331,11.331,0,0,1,1376.75,1887.59Zm0-22.65a11.23,11.23,0,1,0,4.4.89A11.2,11.2,0,0,0,1376.75,1864.94Zm0.8,20.86v-4l0.02,0.01a14.248,14.248,0,0,1,2.74.4l0.02,0.01-0.01.02c-0.68,1.86-1.66,3.12-2.74,3.55Zm0.04-3.95v3.9c1.06-.44,2.01-1.68,2.69-3.51A14.655,14.655,0,0,0,1377.59,1881.85Zm-1.64,3.95-0.03-.01c-1.08-.43-2.06-1.69-2.74-3.55l-0.01-.02,0.02-.01a14.364,14.364,0,0,1,2.74-.4l0.02-.01v4h0Zm-2.73-3.56c0.68,1.83,1.63,3.07,2.69,3.51v-3.9A14.655,14.655,0,0,0,1373.22,1882.24Zm7.44,2.89,0.03-.05a9.989,9.989,0,0,0,.72-1.3c0.16-.33.3-0.68,0.44-1.05v-0.02l0.02,0.01a9,9,0,0,1,1.39.69l0.02,0.01-0.02.02a9.716,9.716,0,0,1-2.54,1.67Zm1.22-2.37c-0.14.36-.28,0.71-0.43,1.04a9.1,9.1,0,0,1-.69,1.24,9.5,9.5,0,0,0,2.46-1.61A9.851,9.851,0,0,0,1381.88,1882.76Zm-9.04,2.37-0.06-.02a9.716,9.716,0,0,1-2.54-1.67l-0.02-.02,0.02-.01a9,9,0,0,1,1.39-.69l0.02-.01v0.02c0.14,0.37.28,0.72,0.44,1.05a9.989,9.989,0,0,0,.72,1.3Zm-2.56-1.7a9.5,9.5,0,0,0,2.46,1.61,9.1,9.1,0,0,1-.69-1.24c-0.15-.33-0.29-0.67-0.43-1.04A9.851,9.851,0,0,0,1370.28,1883.43Zm14.11-1.2-0.01-.01a10.934,10.934,0,0,0-2.05-1.04l-0.01-.01v-0.02a19.6,19.6,0,0,0,.55-4.08v-0.02h3.55v0.02a9.705,9.705,0,0,1-2.02,5.15Zm-2.03-1.08a10.629,10.629,0,0,1,2.02,1.03,9.569,9.569,0,0,0,2-5.09h-3.47A20.186,20.186,0,0,1,1382.36,1881.15Zm-13.25,1.08-0.01-.01a9.705,9.705,0,0,1-2.02-5.15v-0.02h3.55v0.02a19.6,19.6,0,0,0,.55,4.08v0.02l-0.01.01a10.934,10.934,0,0,0-2.05,1.04Zm-1.99-5.14a9.569,9.569,0,0,0,2,5.09,10.629,10.629,0,0,1,2.02-1.03,20.186,20.186,0,0,1-.55-4.06h-3.47Zm13.67,3.59-0.02-.01a15.933,15.933,0,0,0-3.2-.47h-0.02v-3.15h3.72v0.02a18.516,18.516,0,0,1-.48,3.59v0.02Zm-3.2-.52a17.179,17.179,0,0,1,3.17.47,18.9,18.9,0,0,0,.47-3.54h-3.64v3.07Zm-4.88.52v-0.02a18.516,18.516,0,0,1-.48-3.59v-0.02h3.72v3.15h-0.02a15.827,15.827,0,0,0-3.2.47Zm-0.44-3.59a18.9,18.9,0,0,0,.47,3.54,16.258,16.258,0,0,1,3.17-.47v-3.07h-3.64Zm14.15-1.64h-3.55v-0.02a19.6,19.6,0,0,0-.55-4.08v-0.02l0.01-.01a10.934,10.934,0,0,0,2.05-1.04l0.01-.01,0.01,0.01a9.705,9.705,0,0,1,2.02,5.15v0.02Zm-3.51-.04h3.47a9.569,9.569,0,0,0-2-5.09,10.629,10.629,0,0,1-2.02,1.03A20.186,20.186,0,0,1,1382.91,1875.41Zm-1.64.04h-3.72v-3.15h0.02a15.933,15.933,0,0,0,3.2-.47l0.02-.01v0.02a18.516,18.516,0,0,1,.48,3.59v0.02Zm-3.68-.04h3.64a18.9,18.9,0,0,0-.47-3.54,17.179,17.179,0,0,1-3.17.47v3.07Zm-1.64.04h-3.72v-0.02a18.516,18.516,0,0,1,.48-3.59v-0.02l0.02,0.01a15.827,15.827,0,0,0,3.2.47h0.02v3.15h0Zm-3.68-.04h3.64v-3.07a16.258,16.258,0,0,1-3.17-.47A18.9,18.9,0,0,0,1372.27,1875.41Zm-1.64.04h-3.55v-0.02a9.705,9.705,0,0,1,2.02-5.15l0.01-.01,0.01,0.01a10.934,10.934,0,0,0,2.05,1.04l0.01,0.01v0.02a19.6,19.6,0,0,0-.55,4.08v0.02Zm-3.51-.04h3.47a20.186,20.186,0,0,1,.55-4.06,11.245,11.245,0,0,1-2.02-1.03A9.569,9.569,0,0,0,1367.12,1875.41Zm8.83-4.71-0.02-.01a14.364,14.364,0,0,1-2.74-.4l-0.02-.01,0.01-.02c0.68-1.86,1.66-3.13,2.74-3.55l0.03-.01v4h0Zm-2.73-.44a14.655,14.655,0,0,0,2.69.39v-3.9C1374.85,1867.19,1373.9,1868.43,1373.22,1870.26Zm4.33,0.44v-4l0.03,0.01c1.08,0.43,2.06,1.69,2.74,3.55l0.01,0.02-0.02.01a14.248,14.248,0,0,1-2.74.4Zm0.04-3.95v3.9a14.655,14.655,0,0,0,2.69-.39C1379.6,1868.43,1378.65,1867.19,1377.59,1866.75Zm4.26,3.04v-0.02c-0.14-.37-0.28-0.72-0.44-1.05a9.989,9.989,0,0,0-.72-1.3l-0.03-.05,0.06,0.02a9.716,9.716,0,0,1,2.54,1.67l0.02,0.02-0.02.01a9,9,0,0,1-1.39.69Zm-1.09-2.33a9.1,9.1,0,0,1,.69,1.24c0.15,0.33.29,0.68,0.43,1.04a9.851,9.851,0,0,0,1.34-.67A9.5,9.5,0,0,0,1380.76,1867.46Zm-9.11,2.33-0.02-.01a9,9,0,0,1-1.39-.69l-0.02-.01,0.02-.02a9.716,9.716,0,0,1,2.54-1.67l0.06-.02-0.03.05a9.989,9.989,0,0,0-.72,1.3c-0.16.33-.3,0.68-0.44,1.05v0.02Zm-1.37-.72a9.851,9.851,0,0,0,1.34.67c0.14-.37.28-0.71,0.43-1.04a9.1,9.1,0,0,1,.69-1.24A9.5,9.5,0,0,0,1370.28,1869.07Z" transform="translate(-1365.41 -1864.91)"/>
</svg>
